HIERARCHY
ROOT Hips
{
	OFFSET 0.00000 0.00000 0.00000
	CHANNELS 6 Xposition Yposition Zposition Zrotation Yrotation Xrotation 
	JOINT LHipJoint
	{
		OFFSET 0 0 0
		CHANNELS 3 Zrotation Yrotation Xrotation
		JOINT LeftUpLeg
		{
			OFFSET 3.13874 -1.57224 1.49786
			CHANNELS 3 Zrotation Yrotation Xrotation
			JOINT LeftLeg
			{
				OFFSET 2.10955 -5.79594 0.00000
				CHANNELS 3 Zrotation Yrotation Xrotation
				JOINT LeftFoot
				{
					OFFSET 2.41843 -6.64458 0.00000
					CHANNELS 3 Zrotation Yrotation Xrotation
					JOINT LeftToeBase
					{
						OFFSET 0.04713 -0.12948 1.66229
						CHANNELS 3 Zrotation Yrotation Xrotation
						End Site
						{
							OFFSET 0.00000 -0.00000 0.85167
						}
					}
				}
			}
		}
	}
	JOINT RHipJoint
	{
		OFFSET 0 0 0
		CHANNELS 3 Zrotation Yrotation Xrotation
		JOINT RightUpLeg
		{
			OFFSET -3.13988 -1.57224 1.49786
			CHANNELS 3 Zrotation Yrotation Xrotation
			JOINT RightLeg
			{
				OFFSET -2.15006 -5.90725 0.00000
				CHANNELS 3 Zrotation Yrotation Xrotation
				JOINT RightFoot
				{
					OFFSET -2.34496 -6.44273 0.00000
					CHANNELS 3 Zrotation Yrotation Xrotation
					JOINT RightToeBase
					{
						OFFSET -0.08699 -0.23900 1.55223
						CHANNELS 3 Zrotation Yrotation Xrotation
						End Site
						{
							OFFSET -0.00000 -0.00000 0.80281
						}
					}
				}
			}
		}
	}
	JOINT LowerBack
	{
		OFFSET 0 0 0
		CHANNELS 3 Zrotation Yrotation Xrotation
		JOINT Spine
		{
			OFFSET 0.01292 1.96517 -0.16495
			CHANNELS 3 Zrotation Yrotation Xrotation
			JOINT Spine1
			{
				OFFSET 0.02122 1.88666 0.19706
				CHANNELS 3 Zrotation Yrotation Xrotation
				JOINT Neck
				{
					OFFSET 0 0 0
					CHANNELS 3 Zrotation Yrotation Xrotation
					JOINT Neck1
					{
						OFFSET -0.01683 1.81591 0.07903
						CHANNELS 3 Zrotation Yrotation Xrotation
						JOINT Head
						{
							OFFSET 0.00815 1.74013 -0.47700
							CHANNELS 3 Zrotation Yrotation Xrotation
							End Site
							{
								OFFSET -0.00204 1.83225 -0.16933
							}
						}
					}
				}
				JOINT LeftShoulder
				{
					OFFSET 0 0 0
					CHANNELS 3 Zrotation Yrotation Xrotation
					JOINT LeftArm
					{
						OFFSET 3.38482 1.41533 0.19802
						CHANNELS 3 Zrotation Yrotation Xrotation
						JOINT LeftForeArm
						{
							OFFSET 4.32712 -0.00000 0.00000
							CHANNELS 3 Zrotation Yrotation Xrotation
							JOINT LeftHand
							{
								OFFSET 3.28587 -0.00000 -0.00000
								CHANNELS 3 Zrotation Yrotation Xrotation
								JOINT LeftFingerBase
								{
									OFFSET 0 0 0
									CHANNELS 3 Zrotation Yrotation Xrotation
									JOINT LeftHandIndex1
									{
										OFFSET 0.43316 -0.00000 -0.00000
										CHANNELS 3 Zrotation Yrotation Xrotation
										End Site
										{
											OFFSET 0.34922 -0.00000 -0.00000
										}
									}
								}
								JOINT LThumb
								{
									OFFSET 0 0 0
									CHANNELS 3 Zrotation Yrotation Xrotation
									End Site
									{
										OFFSET 0.35456 -0.00000 0.35456
									}
								}
							}
						}
					}
				}
				JOINT RightShoulder
				{
					OFFSET 0 0 0
					CHANNELS 3 Zrotation Yrotation Xrotation
					JOINT RightArm
					{
						OFFSET -3.09725 1.62858 -0.14144
						CHANNELS 3 Zrotation Yrotation Xrotation
						JOINT RightForeArm
						{
							OFFSET -4.29104 -0.00000 0.00000
							CHANNELS 3 Zrotation Yrotation Xrotation
							JOINT RightHand
							{
								OFFSET -3.22720 -0.00000 -0.00000
								CHANNELS 3 Zrotation Yrotation Xrotation
								JOINT RightFingerBase
								{
									OFFSET 0 0 0
									CHANNELS 3 Zrotation Yrotation Xrotation
									JOINT RightHandIndex1
									{
										OFFSET -0.54362 -0.00000 -0.00000
										CHANNELS 3 Zrotation Yrotation Xrotation
										End Site
										{
											OFFSET -0.43828 -0.00000 -0.00000
										}
									}
								}
								JOINT RThumb
								{
									OFFSET 0 0 0
									CHANNELS 3 Zrotation Yrotation Xrotation
									End Site
									{
										OFFSET -0.44497 -0.00000 0.44497
									}
								}
							}
						}
					}
				}
			}
		}
	}
}
MOTION
Frames: 9
Frame Time: .0083333
-37.4876 16.2884 -1.9698 0 0 0 0 0 0 -21 0 0 0 0 0 0 0 0 0 0 0 0 0 0 21 0 0 0 0 0 0 0 0 0 0 0 0 0 0 0 0 0 0 0 0 0 0 -16 0 0 21 0 0 11 0 0 0 -8 0 0 0 0 0 0 0 0 0 0 0 0 0 0 0 0 0 0 0 0 8 0 0 0 0 0 0 0 0 0 0 0 0 0 0 0 0 0
-37.4876 16.2884 -1.9698 -177.8590 -2.4578 -168.5410 0.0000 0.0000 0.0000 -34.1820 -39.9826 17.4432 0.0433 -1.3431 -3.6934 5.6302 -9.0855 -43.6968 2.2607 -9.3892 -27.0204 0.0000 0.0000 0.0000 34.4805 16.5597 -2.3537 -0.0726 -1.7382 4.7828 -1.5429 -4.5646 -25.4892 -0.0001 0.0724 -0.1988 1.8422 1.5569 6.2664 1.3247 1.7831 -9.7355 0.1858 0.4286 -14.1827 0.8644 -1.4119 -20.8466 0.1348 -5.6384 36.8030 -1.5408 -3.1910 16.8461 -0.0000 0.0000 0.0000 -80.7770 15.6101 22.5939 15.8335 -25.2944 -3.5745 -0.0000 -0.0000 2.9508 17.7155 21.3227 6.6255 -7.1250 0.0000 -0.0000 -11.1952 51.9203 -1.9276 -0.0000 0.0000 0.0000 63.3711 -14.0973 53.8879 -19.3423 29.8418 -5.2001 0.0000 0.0000 19.7990 26.1661 -2.3354 -1.1470 7.1250 -0.0000 -0.0000 38.6922 -29.6425 18.7195
-37.4875 16.2896 -1.9767 -177.7020 -2.5230 -168.5750 0.0000 0.0000 0.0000 -34.0418 -39.9740 17.4632 0.0403 -1.2959 -3.5635 5.6190 -8.8280 -43.6734 1.9160 -8.6889 -24.8268 0.0000 0.0000 0.0000 35.0169 16.7054 -0.5459 -0.0070 -0.5408 1.4861 -0.8799 -10.0043 -24.0075 -0.4313 4.2145 -11.6809 2.7890 1.5742 6.0343 1.0491 1.8621 -9.8926 -0.6534 0.3317 -14.1809 0.3592 -1.4441 -19.9110 0.7080 -5.7633 36.5848 -1.1994 -3.2753 16.5479 0.0000 0.0000 0.0000 -80.1793 16.1949 24.1167 15.9680 -25.4773 -3.6322 -0.0000 -0.0000 1.5013 18.1303 21.6692 6.8939 -7.1250 0.0000 -0.0000 -10.9189 52.3424 -1.9928 0.0000 0.0000 0.0000 63.6153 -15.5016 63.8804 -20.0503 30.7029 -5.5570 0.0000 -0.0000 -6.0791 -4.7197 -14.8443 1.2117 7.1250 -0.0000 -0.0000 20.7761 -43.8347 0.6261
-37.4850 16.2905 -1.9830 -177.6100 -2.5836 -168.6420 0.0000 0.0000 0.0000 -33.7970 -39.5878 17.2532 0.0382 -1.2619 -3.4697 5.5105 -7.7410 -43.3292 1.9871 -8.8392 -25.2935 0.0000 0.0000 0.0000 35.8826 19.3010 3.3642 -0.0214 0.9444 -2.5959 -0.7806 -13.1547 -26.1386 -0.2299 3.0861 -8.5184 3.4283 1.6152 5.9578 0.8810 1.9492 -10.0790 -1.2057 0.2736 -14.3279 -0.1634 -1.4631 -18.9955 1.1339 -5.8079 36.3855 -0.9078 -3.3498 16.2611 0.0000 -0.0000 0.0000 -79.8863 16.7676 25.1494 16.0334 -25.5660 -3.6604 -0.0000 -0.0000 0.7825 18.8355 22.0398 7.2945 -7.1250 0.0000 -0.0000 -10.3606 52.8430 -2.0167 0.0000 -0.0000 0.0000 64.1806 -16.5047 66.9844 -20.3546 31.0672 -5.7132 0.0000 -0.0000 -16.0131 -18.4446 -14.3802 4.7351 7.1250 -0.0000 -0.0000 8.4088 -44.9371 0.0132
-37.4839 16.2915 -1.9903 -177.4900 -2.6595 -168.7430 0.0000 0.0000 0.0000 -33.7029 -39.5194 17.3381 0.0375 -1.2503 -3.4378 5.4727 -7.3279 -43.2175 2.0519 -8.9734 -25.7122 0.0000 0.0000 0.0000 36.7627 18.6148 6.3105 -0.1569 2.5520 -7.0339 -0.7948 -13.3016 -26.3956 -0.0121 0.7114 -1.9549 3.9537 1.5886 5.7898 0.9318 1.9375 -10.2692 -1.4312 0.1909 -14.4383 -0.9280 -1.3613 -17.9025 1.4864 -5.5889 36.2224 -0.5578 -3.3720 15.9516 -0.0000 0.0000 0.0000 -80.1329 17.4332 25.3101 16.0399 -25.5748 -3.6632 -0.0000 -0.0000 0.8288 19.1982 21.9669 7.4211 -7.1250 0.0000 -0.0000 -9.9696 52.8344 -1.9373 -0.0000 0.0000 0.0000 64.9955 -17.0592 67.2457 -19.9945 30.6358 -5.5286 0.0000 -0.0000 -18.5494 -23.6328 -13.7212 5.9255 7.1250 -0.0000 -0.0000 3.5134 -44.8743 0.0109
-37.4853 16.2933 -1.9979 -177.4380 -2.7321 -168.8130 0.0000 0.0000 0.0000 -33.8080 -39.7956 17.6225 0.0375 -1.2506 -3.4387 5.4513 -8.5868 -42.9903 1.8138 -8.4669 -24.1416 0.0000 0.0000 0.0000 36.8273 18.8245 6.5129 -0.1587 2.5667 -7.0746 -0.8082 -13.4742 -26.6702 -0.0086 0.5998 -1.6481 4.3560 1.4992 5.4870 1.0286 1.8207 -10.4057 -1.5164 0.0798 -14.4099 -1.8032 -1.2000 -16.8671 2.0046 -5.3144 36.0187 -0.1126 -3.3577 15.6440 -0.0000 -0.0000 0.0000 -80.4655 17.9653 25.0830 16.0428 -25.5786 -3.6644 -0.0000 -0.0000 0.7719 19.0316 21.6215 7.2436 -7.1250 0.0000 -0.0000 -10.0051 52.4531 -1.8504 -0.0000 -0.0000 0.0000 65.8913 -17.3337 65.9239 -19.4191 29.9361 -5.2384 0.0000 -0.0000 -16.6092 -24.1033 -14.8468 6.5397 7.1250 -0.0000 -0.0000 3.2676 -46.1475 -0.0926
-37.4887 16.2965 -2.0033 -177.4600 -2.7982 -168.8470 0.0000 0.0000 0.0000 -33.8957 -39.9201 17.7348 0.0383 -1.2630 -3.4727 5.2259 -12.0316 -41.8135 1.2971 -7.2157 -20.3559 0.0000 0.0000 0.0000 36.8177 19.0445 6.6975 -0.1584 2.5644 -7.0683 -0.9099 -13.1831 -27.1538 -0.0001 0.0516 -0.1417 4.8087 1.3496 5.2770 1.0606 1.6473 -10.4155 -1.6981 -0.0529 -14.2912 -2.6790 -1.0510 -16.3968 2.5692 -5.0111 35.8116 0.3462 -3.2881 15.4665 0.0000 -0.0000 0.0000 -80.6262 18.0808 24.9667 16.0312 -25.5630 -3.6594 -0.0000 -0.0000 0.1072 19.0945 21.6279 7.2712 -7.1250 0.0000 -0.0000 -9.9449 52.4708 -1.8434 0.0000 -0.0000 0.0000 66.6364 -17.4210 64.6713 -19.0370 29.4646 -5.0490 0.0000 -0.0000 -14.7426 -24.5544 -15.7463 7.0678 7.1250 -0.0000 -0.0000 3.0036 -47.1804 -0.1617
-37.4903 16.2980 -2.0085 -177.3880 -2.8619 -168.8830 0.0000 0.0000 0.0000 -33.8711 -40.0210 17.8534 0.0398 -1.2876 -3.5404 5.0724 -13.9037 -41.1362 1.0705 -6.5773 -18.4688 0.0000 0.0000 0.0000 36.8550 19.2857 6.8476 -0.1562 2.5468 -7.0195 -1.1491 -12.1589 -27.9589 -0.0433 -1.3428 3.6925 3.0650 1.5029 5.2038 1.6095 1.7198 -10.2579 -0.1358 0.2249 -14.1076 -0.9723 -1.2236 -17.2512 1.1244 -5.2175 35.9885 -0.6146 -3.2955 15.6573 0.0000 -0.0000 0.0000 -80.8977 17.3964 25.2973 15.8250 -25.2827 -3.5709 -0.0000 -0.0000 0.3950 19.3510 21.4964 7.3332 -7.1250 0.0000 -0.0000 -9.6404 52.3823 -1.7651 0.0000 -0.0000 0.0000 67.1448 -17.7105 62.2997 -18.7822 29.1472 -4.9243 0.0000 -0.0000 -12.8675 -24.2236 -15.5690 6.8855 7.1250 -0.0000 -0.0000 3.2849 -46.9422 -0.1576
-37.4867 16.2968 -2.0157 -177.2240 -2.8851 -168.9540 0.0000 0.0000 0.0000 -33.5970 -39.7529 17.7756 0.0421 -1.3244 -3.6419 5.0239 -13.8524 -40.9275 1.0292 -6.4531 -18.1048 0.0000 0.0000 0.0000 37.1611 19.5675 7.1555 -0.1545 2.5330 -6.9813 -1.3855 -11.0806 -28.7111 -0.1938 -2.8348 7.8193 2.8453 1.5274 5.1762 1.7463 1.7456 -10.1991 0.1321 0.2745 -14.0303 -0.5470 -1.2326 -17.4624 0.7887 -5.2148 35.9845 -0.8325 -3.2685 15.6792 -0.0000 0.0000 0.0000 -80.9197 17.1983 24.6748 15.7252 -25.1466 -3.5284 -0.0000 -0.0000 2.0822 20.4276 22.4024 8.0787 -7.1250 0.0000 -0.0000 -8.8963 53.5053 -1.8724 -0.0000 0.0000 0.0000 67.9486 -17.9226 60.6340 -18.5317 28.8327 -4.8029 0.0000 -0.0000 -11.2750 -24.2151 -15.8254 6.9922 7.1250 -0.0000 -0.0000 3.3412 -47.2171 -0.1830
